<?xml version="1.0" encoding="UTF-8" standalone="no"?>
<!DOCTYPE svg PUBLIC "-//W3C//DTD SVG 1.1//EN" "http://www.w3.org/Graphics/SVG/1.1/DTD/svg11.dtd">
<svg width="100%" height="100%" viewBox="0 0 1181 1687" version="1.1" xmlns="http://www.w3.org/2000/svg" xmlns:xlink="http://www.w3.org/1999/xlink" xml:space="preserve" xmlns:serif="http://www.serif.com/" style="fill-rule:evenodd;clip-rule:evenodd;stroke-linejoin:round;stroke-miterlimit:2;">
    <g transform="matrix(1,0,0,1,-4182.41,-48.035)">
        <g transform="matrix(4.16667,0,0,4.16667,0,0)">
            <path d="M1286.4,174.586C1285.36,155.225 1284.47,131.408 1269.15,117.368C1260.22,109.175 1248.44,104.03 1236.47,101.611C1235.78,95.61 1234.61,89.624 1233.28,83.783C1231.43,75.584 1229.03,67.507 1226.11,59.623C1223.69,53.09 1220.93,46.819 1215.74,41.982C1205.36,32.307 1189.54,30.62 1175.91,33.958C1169.84,23.203 1159.79,14.247 1147.51,12.124C1133.49,9.701 1117.29,14.775 1107.4,25.442C1099.71,22.372 1091.06,22.273 1082.89,23.8C1072.52,25.738 1060.97,30.027 1055.79,39.871C1052.48,46.15 1051.21,53.476 1051.21,60.831C1046.77,60.126 1041.88,60.385 1036.92,61.084C1025.29,62.724 1012.49,66.712 1006.81,78.007C1002.06,87.438 1004.2,99.729 1004.67,109.91C1005.34,124.365 1006.01,138.819 1006.35,153.287C1006.98,180.378 1008.53,207.311 1012.4,234.16C1014.17,246.471 1016.35,258.804 1019.81,270.766C1022.99,281.764 1027.35,292.469 1031.54,303.11C1038.25,320.127 1045.28,337.027 1052.54,353.822C1049.11,364.976 1046.77,377.886 1050.89,389.018C1054.95,399.983 1064.4,404.619 1075.02,407.473C1097.91,413.623 1122.84,415.924 1146.5,416C1156.93,416.028 1167.35,416.638 1177.78,415.92C1191.52,414.973 1205.03,412.117 1217.99,407.432C1228.91,403.483 1239.25,397.93 1244.24,386.861C1247.9,378.721 1248.03,369.816 1246.28,361.177C1245.54,357.545 1244.41,353.879 1242.95,350.402C1255.24,329.23 1266.59,307.388 1275.17,284.431C1280.86,269.205 1285.2,253.303 1286,237C1287.01,216.242 1287.51,195.347 1286.4,174.586ZM1270.98,237.385C1269.74,261.897 1258.82,287.581 1247.69,310.081C1243.32,318.917 1238.67,327.61 1233.81,336.188C1231.44,340.386 1226.46,345.986 1227.13,350.996C1227.32,352.385 1227.92,353.485 1228.49,354.713C1228.7,355.194 1228.92,355.674 1229.14,356.157C1229.2,356.313 1229.27,356.503 1229.36,356.768C1230.03,358.671 1230.69,360.563 1231.2,362.519C1232.3,366.773 1232.89,370.592 1232.28,374.994C1230.04,391.234 1208.71,395.525 1194.99,398.484C1178.9,401.953 1162.82,401.044 1146.5,401C1131.63,400.952 1116.67,399.654 1101.96,397.497C1094.79,396.444 1087.63,395.203 1080.6,393.423C1075.56,392.146 1070.3,391.352 1067.04,387.598C1063,382.925 1063.43,375.298 1064.22,369.606C1065.11,363.174 1069.5,355.622 1066.86,349.437C1063.44,341.461 1060.03,333.484 1056.7,325.472C1045.2,297.798 1033.57,270.305 1028.5,240.618C1022.63,206.232 1022.13,171.674 1020.85,136.928C1020.49,127.26 1020.02,117.597 1019.58,107.932C1019.29,101.602 1018.22,94.557 1019.09,88.249C1020.11,80.767 1028.07,77.942 1034.51,76.607C1038.64,75.75 1050.81,72.454 1053.2,77.846C1056.64,109.832 1060.02,141.889 1062,174C1062.59,183.589 1077.59,183.656 1077,174C1074.99,141.271 1071.51,108.598 1068,76C1067.99,75.938 1067.98,75.878 1067.97,75.816C1067.95,75.241 1067.88,74.638 1067.73,74.006C1066.9,70.387 1066.87,69.747 1066.6,66.425C1066.13,60.74 1066.01,54.653 1067.98,49.224C1070.42,42.533 1077.12,40.613 1083.74,38.955C1089.98,37.395 1096.49,37.131 1102.29,39.625C1104.14,69.154 1106.13,98.678 1108.48,128.171C1109.23,137.621 1110.01,147.071 1111,156.5C1111.42,160.528 1114.14,164 1118.5,164C1122.23,164 1126.43,160.553 1126,156.5C1122.15,119.893 1120.08,83.059 1117.72,46.333C1117.52,43.295 1117.33,40.257 1117.14,37.22C1118.65,35.578 1120.17,33.943 1121.95,32.599C1128.24,27.871 1136.94,25.416 1144.74,26.808C1151,27.925 1156.34,32.182 1159.98,36.977C1161.51,38.986 1162.83,41.193 1163.98,43.436C1164.15,43.756 1164.3,44.082 1164.45,44.408C1163.17,81.51 1162.41,118.955 1165,156C1165.67,165.576 1180.67,165.649 1180,156C1177.51,120.341 1178.12,84.313 1179.31,48.576C1188.3,46.301 1198.95,46.287 1205.89,53.326C1210.02,57.507 1211.68,63.472 1213.51,68.891C1215.75,75.533 1217.63,82.3 1219.13,89.148C1220.36,94.791 1221.31,99.631 1221.78,104.897C1214.08,112.752 1210.8,125.704 1208.33,135.76C1202.68,158.733 1200.32,182.598 1198.45,206.178C1168.27,215.622 1144.59,242.986 1136.77,273.006C1134.33,282.354 1148.79,286.342 1151.23,276.993C1156.24,257.779 1167.57,241.162 1184.18,230.149C1187.13,228.193 1190.19,226.402 1193.34,224.786C1194.74,224.066 1196.17,223.397 1197.6,222.733C1197.81,222.637 1198.8,222.212 1199.03,222.112C1199.39,221.965 1199.75,221.815 1200.11,221.678C1202.53,220.757 1204.97,219.837 1207.49,219.232C1210.88,218.418 1212.75,215.24 1213,212C1214.83,188.167 1216.96,164.043 1222.55,140.743C1223.42,137.099 1224.4,133.475 1225.55,129.908C1226.04,128.383 1226.56,126.867 1227.13,125.369C1227.35,124.805 1227.57,124.244 1227.8,123.685C1227.92,123.416 1228.21,122.734 1228.29,122.576C1229.31,120.433 1230.45,118.413 1231.73,116.417C1231.79,116.317 1231.85,116.232 1231.89,116.157C1231.94,116.107 1231.98,116.055 1232.02,116.004C1232.7,116.14 1233.38,116.28 1234.06,116.437C1238.62,117.493 1243.18,118.878 1247.42,120.869C1252.57,123.291 1257.42,126.364 1261.21,130.665C1265.35,135.367 1266.96,141.112 1268.23,147.123C1271.45,162.338 1271.83,178.202 1271.96,193.7C1272.08,208.256 1271.72,222.846 1270.98,237.385Z" style="fill:rgb(35,31,32);fill-rule:nonzero;"/>
        </g>
    </g>
</svg>
