<?xml version="1.0" encoding="UTF-8" standalone="no"?>
<!DOCTYPE svg PUBLIC "-//W3C//DTD SVG 1.1//EN" "http://www.w3.org/Graphics/SVG/1.1/DTD/svg11.dtd">
<svg width="100%" height="100%" viewBox="0 0 1133 1692" version="1.1" xmlns="http://www.w3.org/2000/svg" xmlns:xlink="http://www.w3.org/1999/xlink" xml:space="preserve" xmlns:serif="http://www.serif.com/" style="fill-rule:evenodd;clip-rule:evenodd;stroke-linejoin:round;stroke-miterlimit:2;">
    <g transform="matrix(1,0,0,1,-401.535,-61.358)">
        <g transform="matrix(4.16667,0,0,4.16667,0,0)">
            <path d="M357.511,187.567C352.275,176.797 345.564,166.305 337.723,157.132C340.045,130.942 342.413,104.745 344.26,78.517C345.455,61.552 342.244,43.744 326.092,34.747C310.768,26.211 287.494,25.305 273.151,36.533C269.832,24.437 259.147,17.976 247.062,15.931C233.275,13.599 217.476,13.785 206.991,24.469C198.863,32.752 197.724,43.764 196.413,54.679C195.153,65.177 193.972,75.685 192.793,86.193C190.898,103.09 189.04,119.99 187.202,136.893C176.784,138.835 165.721,142.332 157.47,148.559C150.441,153.865 145.063,161.242 141.219,169.195C130.271,171.064 119.231,175.4 111.207,182.995C103.007,190.755 97.721,204.062 96.623,215.227C95.981,221.755 96.664,228.369 97.442,234.854C98.762,245.863 100.393,256.896 102.461,267.789C106.474,288.932 112.967,309.614 120.184,329.859C124.099,340.842 128.27,351.753 132.813,362.496C128.984,378.184 126.121,396.94 141.826,406.862C149.073,411.44 158.353,413.963 166.601,415.9C178.957,418.801 191.758,419.828 204.416,420.219C223.168,420.798 242.069,420.925 260.739,418.886C271.314,417.732 281.944,416.169 292.195,413.266C300.587,410.89 309.659,407.624 315.993,401.369C327.117,390.383 327.65,372.04 323.938,357.353C330.301,349.505 336.32,341.308 341.753,332.816C349.342,320.955 353.922,308.256 357.814,294.805C362.854,277.386 366.727,259.42 367.99,241.301C369.311,222.355 365.823,204.661 357.511,187.567ZM279.442,51.22C280.054,50.407 282.374,48.173 283.911,47.202C286.664,45.463 289.697,44.447 292.91,43.909C300.639,42.615 309.887,43.575 317.016,46.919C329.77,52.903 330.105,66.602 329.232,78.908C328.209,93.342 326.97,107.763 325.746,122.182C325.076,130.071 324.385,137.959 323.698,145.848C318.319,142.949 312.468,140.778 306.899,139.013C296.639,135.761 286.285,134.48 275.702,136.89C275.102,137.027 274.514,137.18 273.93,137.338C274.073,124.844 274.21,112.35 274.321,99.856C274.424,88.265 276.467,55.168 279.442,51.22ZM209.881,67.777C210.712,60.543 211.285,51.756 212.669,45.392C215.212,33.695 224.037,29.221 235.512,29.644C244.948,29.992 256.974,31.418 259.066,42.016C260.402,48.783 259.434,86.717 259.35,96.538C259.211,112.703 259.043,128.869 258.85,145.034C252.773,150.054 248.483,156.764 246.002,164.391C242.521,159.848 238.739,155.538 234.394,151.93C225.374,144.438 213.975,138.933 202.218,136.772C203.53,124.716 204.848,112.66 206.186,100.607C207.4,89.662 208.623,78.718 209.881,67.777ZM167.426,159.81C175.027,154.778 185.074,152.283 194.162,150.836C194.752,150.87 195.34,150.936 195.929,150.988C195.967,150.991 195.995,150.993 196.028,150.996C196.301,151.035 196.575,151.072 196.845,151.121C198.166,151.361 199.485,151.595 200.795,151.892C206.766,153.247 212.462,155.363 217.753,158.458C231.731,166.633 240.685,181.965 248.802,195.502C252.765,202.11 256.514,208.849 260.045,215.698C261.28,218.092 262.49,220.5 263.651,222.93C264.089,223.847 264.526,224.766 264.943,225.693C265.475,226.873 265.564,227.202 265.62,227.377C267.389,232.87 267.337,239.194 263.978,244.115C261.145,248.264 256.25,250.67 251.79,252.174C237.822,256.887 222.84,254.017 213.551,241.963C210.085,235.104 205.52,228.622 201.333,222.264C196.48,214.896 191.488,207.611 186.303,200.472C177.903,188.908 168.097,180.284 156.169,173.005C156.477,172.464 156.777,171.918 157.1,171.385C159.783,166.97 163.075,162.689 167.426,159.81ZM113.372,208.403C113.536,207.915 113.735,207.437 113.922,206.957C113.951,206.883 113.973,206.826 113.989,206.781C114.004,206.748 114.014,206.724 114.031,206.687C114.487,205.643 114.972,204.612 115.462,203.583C116.655,201.073 117.767,198.314 119.463,196.102C123.583,190.726 130.342,187.669 136.647,185.731C139.263,184.927 141.93,184.277 144.622,183.783C144.704,183.768 144.785,183.758 144.867,183.743C151.337,187.34 157.692,191.267 163.154,196.285C164.689,197.696 166.142,199.185 167.557,200.715C168.061,201.26 168.559,201.809 169.05,202.364C169.309,202.656 169.545,202.967 169.794,203.267C169.848,203.332 169.893,203.386 169.931,203.431C169.949,203.455 169.965,203.476 169.988,203.506C178.978,215.187 187.204,227.606 194.978,240.119C196.494,242.559 198.214,245.093 199.672,247.733C199.852,248.34 200.123,248.92 200.524,249.443C200.555,249.484 200.588,249.523 200.62,249.565C202.522,253.461 203.658,257.584 202.594,261.978C200.936,268.831 195.094,274.018 188.58,276.185C179.876,279.079 170.041,279.466 161.035,277.923C153.321,276.601 147.218,273.662 140.808,269.28C131.182,262.701 122.303,254.759 114.098,246.482C113.806,244.639 113.516,242.796 113.251,240.946C111.57,229.229 110.082,218.166 113.372,208.403ZM344.732,285.899C340.79,300.35 336.296,313.718 328.089,326.349C323.971,332.686 319.523,338.823 314.861,344.77C311.889,348.56 307.372,352.44 308.444,357.683C310.38,367.152 313.156,377.524 308.198,386.935C305.051,392.908 298.331,395.56 292.242,397.57C284.141,400.244 275.681,401.883 267.246,403.081C252.694,405.146 238.128,405.49 223.464,405.433C202.83,405.352 182.033,405.307 162.15,399.088C159.272,398.189 156.339,397.3 153.566,396.106C153.255,395.972 151.536,395.142 150.739,394.699C150.175,394.384 149.623,394.054 149.079,393.704C148.456,393.304 148.364,393.272 148.355,393.272C148.36,393.269 148.348,393.229 147.989,392.901C147.645,392.588 147.312,392.265 146.991,391.928C146.86,391.791 146.764,391.693 146.682,391.61C146.672,391.597 146.668,391.59 146.658,391.575C146.431,391.251 145.434,389.256 145.564,389.692C144.461,386.785 144.539,385.037 144.681,381.729C144.828,378.293 145.414,374.936 146.114,371.574C147.076,366.951 149.011,362.61 147.068,358.034C146.885,357.602 146.809,357.424 146.785,357.372C146.716,357.204 146.624,356.982 146.495,356.671C145.576,354.451 144.667,352.228 143.773,349.998C133.456,324.246 124.845,298.11 118.833,271.223C123.164,274.856 127.63,278.319 132.233,281.537C148.842,293.149 169.575,296.536 189.295,291.596C203.407,288.062 214.665,277.15 217.295,263.939C226.263,268.705 236.575,270.417 247.657,268.627C263.032,266.143 278.508,256.898 281.206,240.374C283.607,225.67 275.664,212.787 268.878,200.376C265.58,194.344 262.116,188.395 258.457,182.571C258.244,174.908 259.227,166.919 264.003,160.638C268.1,155.251 274.336,152.414 280.827,151.112C288.353,149.602 295.707,151.195 302.911,153.477C310.498,155.88 319.046,159.135 324.696,164.961C324.8,165.068 324.907,165.158 325.012,165.256C325.143,165.425 325.263,165.594 325.406,165.764C328.853,169.891 331.557,173.404 334.658,178.024C345.109,193.594 353,211.024 353.316,230.035C353.631,248.91 349.676,267.773 344.732,285.899Z" style="fill:rgb(35,31,32);fill-rule:nonzero;"/>
        </g>
    </g>
</svg>
