<?xml version="1.0" encoding="UTF-8" standalone="no"?>
<!DOCTYPE svg PUBLIC "-//W3C//DTD SVG 1.1//EN" "http://www.w3.org/Graphics/SVG/1.1/DTD/svg11.dtd">
<svg width="100%" height="100%" viewBox="0 0 1259 1363" version="1.1" xmlns="http://www.w3.org/2000/svg" xmlns:xlink="http://www.w3.org/1999/xlink" xml:space="preserve" xmlns:serif="http://www.serif.com/" style="fill-rule:evenodd;clip-rule:evenodd;stroke-linejoin:round;stroke-miterlimit:2;">
    <g transform="matrix(1,0,0,1,-2232.32,-380.433)">
        <g transform="matrix(4.16667,0,0,4.16667,0,0)">
            <path d="M795.29,346.713C810.071,322.566 834.173,304.789 837.553,274.805C838.687,264.747 836.703,254.445 835.514,244.472C833.576,228.214 832.456,211.533 829.143,195.493C826.748,183.9 821.739,173.926 811.371,167.692C802.829,162.557 792.861,159.442 783.059,157.227C781.635,149.127 780.322,141.006 779.072,132.878C777.479,122.511 776.582,111.187 768.91,103.215C762.061,96.1 751.863,94 742.473,92.714C729.511,90.938 716.03,90.034 703.631,95.027C699.445,96.712 695.275,98.969 691.805,101.972C676.409,96.289 657.547,99.853 642.638,104.95C633.656,108.021 624.822,113.46 619.543,121.477C606.948,122.955 593.979,125.9 582.831,131.775C569.01,139.058 561.375,154.228 562.126,169.506C555.722,173.632 549.926,179.033 545.554,185.129C536.828,197.297 534.78,216.169 536.144,230.69C537.56,245.755 543.749,258.107 552.751,270.009C555.175,273.214 557.69,276.344 560.26,279.43C560.265,279.437 560.269,279.444 560.274,279.452C560.87,280.26 561.517,281.025 562.204,281.753C563.212,282.939 564.226,284.118 565.25,285.29C566.676,286.923 568.121,288.541 569.548,290.174C570.048,290.746 570.534,291.331 571.039,291.898C571.093,291.959 571.133,292.003 571.176,292.05C581.849,306.993 592.007,322.444 601.786,337.985C605.124,343.289 608.058,349.492 605.848,355.814C604.34,360.127 602.24,363.979 601.468,368.547C599.017,383.056 606.794,396.089 618.286,404.524C629.622,412.843 644.568,415.414 658.211,416.921C672.28,418.474 686.455,418.289 700.583,418C718.058,417.618 735.586,416.503 752.762,413.102C766.785,410.326 784.245,406.838 793.078,394.458C799.295,385.743 799.522,374.188 797,364.146C796.512,362.204 795.891,360.299 795.166,358.432C794.632,357.057 793.734,353.628 792.522,352.383C792.544,352.315 792.565,352.257 792.589,352.171C793.058,350.527 794.148,348.577 795.29,346.713ZM704.27,111.37C705.229,110.771 706.221,110.208 707.241,109.719C709.151,108.801 711.185,108.14 713.253,107.601C720.788,105.638 728.559,106.129 736.224,106.946C741.797,107.539 747.661,108.252 752.904,110.336C755.968,111.554 758.346,113.374 759.706,115.708C762.037,119.708 762.863,125.259 763.632,130.403C765.037,139.792 766.511,149.174 768.127,158.53C755.327,165.467 741.043,169.071 726.526,169.686C721.002,169.92 715.04,169.923 709.555,171.342C703.483,162.217 699.346,151.527 696.543,141.043C695.857,138.478 695.16,135.817 694.851,133.173C694.757,132.372 694.758,131.397 694.71,130.523C694.695,130.244 694.836,128.969 694.795,128.999C695.71,124.256 697.847,119.286 699.976,114.958C700.85,114.174 701.632,113.312 702.529,112.549C702.628,112.52 704.085,111.486 704.27,111.37ZM648.158,118.918C658.564,115.722 672.281,112.08 683.592,115.014C682.228,118.392 681.056,121.856 680.28,125.307C678.999,131.006 680.143,137.07 681.475,142.656C684.481,155.258 689.553,168.617 696.961,179.463C693.591,183.992 691.846,189.709 690.223,195.21C687.905,203.068 686.138,211.283 685.444,219.498C675.625,222.286 665.12,209.578 660.014,203.123C653.364,194.717 647.573,185.391 641.886,176.318C636.798,168.201 631.204,159.664 628.151,150.515C626.367,145.168 627.267,137.386 630.559,132.285C630.605,132.214 631.339,130.787 631.713,130.145C632.718,128.422 632.384,128.957 634.014,127.248C637.868,123.208 642.852,120.548 648.158,118.918ZM578.527,158.374C580.893,150.854 586.477,146.259 593.478,143.244C599.545,140.631 606.118,139.026 612.608,137.766C610.041,154.827 621.408,172.089 630.457,186.299C639.791,200.956 653.389,224.663 671.196,232.204C667.353,238.433 662.721,245.152 657.965,247.933C653.737,250.405 644.622,251.354 638.823,249.856C636.974,249.379 635.233,248.731 633.571,247.786C632.819,247.358 632.105,246.88 631.397,246.388C631.382,246.373 631.365,246.358 631.35,246.345C630.125,245.183 628.953,243.992 627.829,242.731C613.063,226.18 600.557,206.014 588.023,187.167C584.403,181.723 580.804,176.264 577.252,170.776C577.186,169.968 577.129,169.161 577.114,168.346C577.055,164.917 577.495,161.653 578.527,158.374ZM555.234,198.263C557.632,192.466 562.476,187.527 567.809,183.731C577.301,198.292 587.01,212.723 597.057,226.903C603.763,236.367 610.462,246.215 618.439,254.674C619.913,256.236 621.511,257.613 623.204,258.823C622.402,259.747 621.587,260.66 620.757,261.558C616.33,266.349 611.512,271.056 605.736,274.192C600.119,277.242 593.349,277.608 587.104,276.867C583.708,276.465 577.672,275.288 574.58,273.13C567.481,264.804 560.393,256.48 555.481,246.584C548.539,232.599 549.32,212.553 555.234,198.263ZM786.79,332.63C781.428,339.915 774.478,349.744 778.98,359.031C781.683,364.608 784.262,371.272 783.433,378.537C781.902,391.951 765.945,394.692 754.979,397.289C737.161,401.509 718.835,402.6 700.583,403C689.199,403.233 677.804,403.395 666.434,402.639C655.137,401.888 642.989,400.509 632.636,395.608C623.832,391.439 614.62,382.636 616.009,372.042C616.616,367.408 618.273,365.005 619.816,360.993C622.524,353.95 621.933,346.11 619.219,339.162C615.86,330.565 609.841,322.815 604.788,315.15C599.755,307.516 594.695,299.899 589.556,292.336C596.184,292.557 602.742,291.559 608.14,289.507C620.07,284.973 629.843,274.914 637.635,264.823C645.579,266.291 654.073,265.403 661.681,262.577C669.34,259.732 674.327,253.069 679.053,246.716C681.635,243.244 684.081,239.656 686.387,235.987C687.395,239.455 689.106,242.678 691.89,245.467C695.206,248.79 699.175,251.421 703.47,253.551C692.405,261.987 682.195,272.18 677.096,284.855C673.1,294.788 671.224,305.683 670.514,316.328C669.888,325.701 670.018,336.505 674.847,344.877C679.669,353.237 692.636,345.692 687.799,337.307C684.709,331.95 685.06,322.547 685.561,315.684C686.217,306.696 687.918,297.141 691.56,288.843C696.949,276.564 709.678,266.966 720.822,259.559C723.236,260.136 725.632,260.634 727.968,261.076C739.996,263.357 752.044,265.541 764.09,267.731C773.528,269.448 777.576,254.995 768.077,253.267C758.835,251.587 749.595,249.897 740.359,248.184C729.824,246.23 719.103,244.566 709.479,239.565C704.094,236.767 700.454,234.252 700.169,228.184C699.802,220.367 701.26,212.513 703.128,204.959C704.445,199.632 705.676,189.071 711.369,186.499C717.132,183.895 724.728,184.856 730.869,184.473C746.651,183.49 762.516,178.85 776.379,171.106C784.686,172.844 793.294,175.089 800.798,178.976C807.965,182.687 811.308,186.533 813.593,194.884C817.511,209.197 818.136,224.681 819.904,239.379C821.055,248.951 822.884,258.781 822.917,268.444C823.005,294.33 801.006,313.314 786.79,332.63Z" style="fill:rgb(35,31,32);fill-rule:nonzero;"/>
        </g>
    </g>
</svg>
